<?xml version="1.0" encoding="iso-8859-1"?>
<svg version="1.1" id="Layer_1" xmlns="http://www.w3.org/2000/svg" xmlns:xlink="http://www.w3.org/1999/xlink" x="0px" y="0px"
	 viewBox="0 0 512 512" style="enable-background:new 0 0 512 512;" xml:space="preserve">
<circle style="fill:#324A5E;" cx="256" cy="256" r="256"/>
<path style="fill:#2B3B4E;" d="M256.972,511.988c108.968-0.407,201.873-68.892,238.418-165.14L318.942,167.434l-126.986-30.196
	l-54.556-18.542l75.374,76.264l-93.855-9.43l85.516,85.563l-62.212,13.352l119.184,119.184l-70.668,42.124L256.972,511.988z"/>
<polygon style="fill:#FC6F58;" points="321.262,445.752 190.738,445.752 164.633,236.915 347.367,236.915 "/>
<polygon style="fill:#F1543F;" points="347.367,236.915 256,236.915 256,445.752 321.262,445.752 "/>
<g>
	<path style="fill:#F4E3C3;" d="M312.891,177.564c-0.724,0-1.46-0.114-2.182-0.355L140.041,120.32
		c-3.613-1.205-5.566-5.11-4.361-8.723c1.205-3.615,5.125-5.561,8.723-4.361l170.667,56.889c3.613,1.205,5.566,5.11,4.361,8.723
		C318.467,175.737,315.776,177.564,312.891,177.564z"/>
	<path style="fill:#F4E3C3;" d="M302.104,210.751c-0.298,0-0.598-0.019-0.9-0.057l-178.388-23.28
		c-3.775-0.493-6.437-3.955-5.946-7.73c0.495-3.775,3.951-6.434,7.73-5.946l178.388,23.28c3.775,0.493,6.437,3.955,5.946,7.73
		C308.479,208.22,305.516,210.751,302.104,210.751z"/>
</g>
<polygon style="fill:#D83E20;" points="347.367,236.915 369.778,284.444 142.222,284.444 164.633,236.915 "/>
<g>
	<polygon style="fill:#C1321F;" points="347.367,236.915 256,236.915 256,284.444 369.778,284.444 	"/>
	<circle style="fill:#C1321F;" cx="256" cy="341.333" r="28.444"/>
</g>
<path style="fill:#A82116;" d="M284.444,341.333c0-15.71-12.734-28.444-28.444-28.444v56.889
	C271.71,369.778,284.444,357.043,284.444,341.333z"/>
<g>
</g>
<g>
</g>
<g>
</g>
<g>
</g>
<g>
</g>
<g>
</g>
<g>
</g>
<g>
</g>
<g>
</g>
<g>
</g>
<g>
</g>
<g>
</g>
<g>
</g>
<g>
</g>
<g>
</g>
</svg>
